<svg xmlns="http://www.w3.org/2000/svg" width="18.374" height="10.303" viewBox="0 0 18.374 10.303">
  <g id="logistics-delivery-truck-in-movement" transform="translate(0 -134.412)">
    <g id="Group_35" data-name="Group 35" transform="translate(0 134.412)">
      <path id="Path_167" data-name="Path 167" d="M6.808,141.646a1.535,1.535,0,1,0,1.533,1.536A1.534,1.534,0,0,0,6.808,141.646Zm0,2.3a.767.767,0,1,1,.767-.767A.768.768,0,0,1,6.808,143.948Zm11.566-3.437v1.637a.74.74,0,0,1-.74.74h-.791a2.029,2.029,0,0,0-4.016,0H8.815a2.028,2.028,0,0,0-4.014,0H3.811a.74.74,0,0,1-.74-.74v-1.637Zm-3.538,1.135a1.535,1.535,0,1,0,1.533,1.536A1.536,1.536,0,0,0,14.835,141.646Zm0,2.3a.767.767,0,1,1,.767-.767A.768.768,0,0,1,14.835,143.948Zm3.247-5.086-2.907-2.875a.988.988,0,0,0-.693-.286H13.016v-.55a.739.739,0,0,0-.74-.74H3.81a.74.74,0,0,0-.74.74v.116l-3,.346,5.318.693L0,136.841l5.368.763L0,138.07l3.071.579V140.1h15.3v-.54A.991.991,0,0,0,18.082,138.862Zm-1.267.1H14a.116.116,0,0,1-.116-.116V136.67a.116.116,0,0,1,.116-.116h.535a.125.125,0,0,1,.081.032l2.276,2.172A.116.116,0,0,1,16.815,138.958Z" transform="translate(0 -134.412)" fill="#ff7101"/>
    </g>
  </g>
</svg>
