<svg xmlns="http://www.w3.org/2000/svg" width="57.73" height="57.73" viewBox="0 0 57.73 57.73">
  <g id="Group_648" data-name="Group 648" transform="translate(0 0)">
    <rect id="Rectangle_435" data-name="Rectangle 435" width="41" height="41" rx="1" transform="translate(8.125 8.227)" fill="#fff"/>
    <rect id="Rectangle_436" data-name="Rectangle 436" width="40.921" height="40.921" rx="1" transform="matrix(0.995, 0.105, -0.105, 0.995, 10.655, 6.378)" fill="#fff"/>
    <rect id="Rectangle_437" data-name="Rectangle 437" width="40.921" height="40.921" rx="1" transform="translate(13.531 4.326) rotate(13)" fill="#fff"/>
    <rect id="Rectangle_438" data-name="Rectangle 438" width="40.921" height="40.921" rx="1" transform="translate(17.559 2.23) rotate(22)" fill="#fff"/>
    <rect id="Rectangle_439" data-name="Rectangle 439" width="40.921" height="40.921" rx="1" transform="translate(21.865 0.789) rotate(31)" fill="#fff"/>
    <rect id="Rectangle_440" data-name="Rectangle 440" width="40.921" height="40.921" rx="1" transform="translate(26.847 0) rotate(41)" fill="#fff"/>
    <rect id="Rectangle_441" data-name="Rectangle 441" width="40.921" height="40.921" rx="1" transform="translate(31.387 0.04) rotate(50)" fill="#fff"/>
    <rect id="Rectangle_442" data-name="Rectangle 442" width="40.921" height="40.921" rx="1" transform="matrix(0.53, 0.848, -0.848, 0.53, 35.374, 0.671)" fill="#fff"/>
    <rect id="Rectangle_443" data-name="Rectangle 443" width="40.921" height="40.921" rx="1" transform="translate(38.762 1.674) rotate(65)" fill="#fff"/>
    <rect id="Rectangle_444" data-name="Rectangle 444" width="40.921" height="40.921" rx="1" transform="translate(42.45 3.316) rotate(73)" fill="#fff"/>
    <rect id="Rectangle_445" data-name="Rectangle 445" width="40.921" height="40.921" rx="1" transform="translate(45.873 5.456) rotate(81)" fill="#fff"/>
  </g>
</svg>
